<svg width="385" height="368" viewBox="0 0 385 368" fill="none" xmlns="http://www.w3.org/2000/svg">
<rect x="60.3594" y="63.0804" width="257.407" height="250.267" stroke="#C6C6C6" stroke-width="2" stroke-linejoin="round" stroke-dasharray="3 3"/>
<rect y="0.582642" width="268.26" height="267.551" fill="#F1F1F1"/>
<rect x="6.56934" y="39.6305" width="255.121" height="222.718" fill="white"/>
<rect x="27.373" y="68.5555" width="211.323" height="161.977" rx="8" fill="#F1F1F1"/>
<rect x="244.172" y="17.9373" width="16.4241" height="5.7849" rx="2.89245" fill="#C4C4C4"/>
<rect x="43.2061" y="119.813" width="78.8672" height="6.27529" rx="3.13764" fill="white"/>
<rect x="43.2061" y="182.566" width="78.8672" height="6.27529" rx="3.13764" fill="white"/>
<rect x="138.227" y="119.813" width="78.8672" height="6.27529" rx="3.13764" fill="#0F8CE9"/>
<rect x="43.2061" y="109.773" width="78.8672" height="6.27529" rx="3.13764" fill="white"/>
<rect x="43.2061" y="172.526" width="78.8672" height="6.27529" rx="3.13764" fill="#FFB422"/>
<rect x="138.227" y="109.773" width="78.8672" height="6.27529" rx="3.13764" fill="white"/>
<rect x="43.2061" y="129.854" width="78.8672" height="6.27529" rx="3.13764" fill="white"/>
<rect x="43.2061" y="192.607" width="78.8672" height="6.27529" rx="3.13764" fill="#FFB422"/>
<rect x="138.227" y="129.854" width="78.8672" height="6.27529" rx="3.13764" fill="white"/>
<rect x="43.2061" y="139.894" width="44.6598" height="6.27529" rx="3.13764" fill="#0F8CE9"/>
<rect x="43.2061" y="202.647" width="44.6598" height="6.27529" rx="3.13764" fill="white"/>
<rect x="138.227" y="139.894" width="44.6598" height="6.27529" rx="3.13764" fill="white"/>
<ellipse cx="9.30669" cy="20.1065" rx="2.73735" ry="3.61556" fill="#C4C4C4"/>
<ellipse cx="16.9717" cy="20.1065" rx="2.73735" ry="3.61556" fill="#C4C4C4"/>
<ellipse cx="24.6358" cy="20.1065" rx="2.73735" ry="3.61556" fill="#C4C4C4"/>
<g filter="url(#filter0_d_50_401)">
<rect x="160.082" y="158.72" width="198.883" height="177.886" rx="15" fill="white"/>
</g>
<line x1="201.69" y1="248.596" x2="320.667" y2="248.596" stroke="#F1F1F1"/>
<line x1="199.991" y1="278.953" x2="318.968" y2="278.953" stroke="#F1F1F1"/>
<line x1="199.991" y1="233.417" x2="318.968" y2="233.417" stroke="#F1F1F1"/>
<line x1="199.991" y1="263.775" x2="318.968" y2="263.775" stroke="#F1F1F1"/>
<line x1="199.991" y1="218.239" x2="318.968" y2="218.239" stroke="#F1F1F1"/>
<line x1="208.989" y1="203.56" x2="208.989" y2="287.991" stroke="#F1F1F1"/>
<line x1="249.781" y1="203.56" x2="249.781" y2="287.991" stroke="#F1F1F1"/>
<line x1="290.573" y1="203.56" x2="290.573" y2="287.991" stroke="#F1F1F1"/>
<line x1="222.587" y1="202.611" x2="222.587" y2="287.042" stroke="#F1F1F1"/>
<line x1="263.379" y1="202.611" x2="263.379" y2="287.042" stroke="#F1F1F1"/>
<line x1="304.171" y1="202.611" x2="304.171" y2="287.042" stroke="#F1F1F1"/>
<line x1="236.185" y1="202.611" x2="236.185" y2="287.042" stroke="#F1F1F1"/>
<line x1="276.977" y1="202.611" x2="276.977" y2="287.042" stroke="#F1F1F1"/>
<line x1="317.769" y1="202.611" x2="317.769" y2="287.042" stroke="#F1F1F1"/>
<rect x="184.787" y="205.157" width="5.70124" height="3.76517" rx="1.5" fill="#E0DBFF"/>
<rect x="185.737" y="280.461" width="5.70124" height="3.76517" rx="1.5" fill="#E0DBFF"/>
<rect x="184.787" y="242.809" width="5.70124" height="3.76517" rx="1.5" fill="#E0DBFF"/>
<rect x="197.14" y="310.582" width="7.53034" height="2.85062" rx="1.42531" transform="rotate(-90 197.14 310.582)" fill="#E0DBFF"/>
<rect x="225.646" y="310.582" width="7.53034" height="2.85062" rx="1.42531" transform="rotate(-90 225.646 310.582)" fill="#E0DBFF"/>
<rect x="254.152" y="310.582" width="7.53034" height="2.85062" rx="1.42531" transform="rotate(-90 254.152 310.582)" fill="#E0DBFF"/>
<rect x="282.658" y="310.582" width="7.53034" height="2.85062" rx="1.42531" transform="rotate(-90 282.658 310.582)" fill="#E0DBFF"/>
<rect x="311.165" y="310.582" width="7.53034" height="2.85062" rx="1.42531" transform="rotate(-90 311.165 310.582)" fill="#E0DBFF"/>
<rect x="184.787" y="223.983" width="5.70124" height="3.76517" rx="1.5" fill="#E0DBFF"/>
<rect x="185.737" y="299.287" width="5.70124" height="3.76517" rx="1.5" fill="#E0DBFF"/>
<rect x="184.787" y="261.635" width="5.70124" height="3.76517" rx="1.5" fill="#E0DBFF"/>
<rect x="211.393" y="310.582" width="7.53034" height="2.85062" rx="1.42531" transform="rotate(-90 211.393 310.582)" fill="#E0DBFF"/>
<rect x="239.899" y="310.582" width="7.53034" height="2.85062" rx="1.42531" transform="rotate(-90 239.899 310.582)" fill="#E0DBFF"/>
<rect x="268.405" y="310.582" width="7.53034" height="2.85062" rx="1.42531" transform="rotate(-90 268.405 310.582)" fill="#E0DBFF"/>
<rect x="296.911" y="310.582" width="7.53034" height="2.85062" rx="1.42531" transform="rotate(-90 296.911 310.582)" fill="#E0DBFF"/>
<rect x="325.418" y="310.582" width="7.53034" height="2.85062" rx="1.42531" transform="rotate(-90 325.418 310.582)" fill="#E0DBFF"/>
<path d="M263.51 257.242C229.349 241.049 206.993 273.5 199.533 292.943C199.285 293.589 199.771 294.266 200.464 294.266H320.618C321.17 294.266 321.618 293.818 321.618 293.266V207.773C321.618 206.552 319.476 206.322 319.167 207.504C311.951 235.108 294.08 271.733 263.51 257.242Z" fill="#FFB422"/>
<path d="M189.538 195.117V306.817H331.594" stroke="#E0DBFF" stroke-width="3"/>
<defs>
<filter id="filter0_d_50_401" x="144.082" y="147.72" width="240.883" height="219.885" filterUnits="userSpaceOnUse" color-interpolation-filters="sRGB">
<feFlood flood-opacity="0" result="BackgroundImageFix"/>
<feColorMatrix in="SourceAlpha" type="matrix" values="0 0 0 0 0 0 0 0 0 0 0 0 0 0 0 0 0 0 127 0" result="hardAlpha"/>
<feOffset dx="5" dy="10"/>
<feGaussianBlur stdDeviation="10.5"/>
<feComposite in2="hardAlpha" operator="out"/>
<feColorMatrix type="matrix" values="0 0 0 0 0.700272 0 0 0 0 0.700272 0 0 0 0 0.700272 0 0 0 0.25 0"/>
<feBlend mode="normal" in2="BackgroundImageFix" result="effect1_dropShadow_50_401"/>
<feBlend mode="normal" in="SourceGraphic" in2="effect1_dropShadow_50_401" result="shape"/>
</filter>
</defs>
</svg>
